<svg xmlns="http://www.w3.org/2000/svg" viewBox="0 0 1010 1010"><path fill="#ECF0F1" d="M20.2 505v117.018c0 18.464 14.973 33.436 33.437 33.436h802.418V505"/><path fill="#BDBF6D" d="M856.055 505V53.636c0-18.464-14.953-33.436-33.418-33.436h-769C35.173 20.2 20.2 35.172 20.2 53.636V505"/><path fill="#656872" d="M649.182 675.654H53.637C24.057 675.654 0 651.588 0 622.018V53.636C0 24.066 24.057 0 53.637 0h769c29.56 0 53.617 24.066 53.617 53.636V342c0 11.166-9.045 20.2-20.2 20.2-11.156 0-20.2-9.034-20.2-20.2V53.636c0-7.299-5.928-13.236-13.217-13.236h-769c-7.3 0-13.237 5.937-13.237 13.236v568.382c0 7.298 5.938 13.236 13.237 13.236h595.545c11.155 0 20.2 9.035 20.2 20.2s-9.045 20.2-20.2 20.2z"/><path fill="#BDC3C7" d="M521.708 675.654V789.2H354.546V675.654"/><path fill="#656872" d="M521.708 809.4H354.546c-11.156 0-20.2-9.035-20.2-20.2V675.654c0-11.165 9.044-20.2 20.2-20.2 11.155 0 20.2 9.035 20.2 20.2V769h126.763v-93.346c0-11.165 9.044-20.2 20.2-20.2 11.155 0 20.2 9.035 20.2 20.2V789.2c0 11.165-9.045 20.2-20.2 20.2zm127.474-267.492H20.2c-11.155 0-20.2-9.035-20.2-20.2s9.045-20.2 20.2-20.2h628.982c11.155 0 20.2 9.035 20.2 20.2s-9.045 20.2-20.2 20.2z"/><path fill="#656872" d="M588.582 809.4h-300.91c-11.155 0-20.2-9.035-20.2-20.2s9.045-20.2 20.2-20.2h300.91c11.154 0 20.2 9.035 20.2 20.2s-9.046 20.2-20.2 20.2z"/><path fill="#ECF0F1" d="M989.8 856.073v100.29c0 18.464-14.972 33.437-33.437 33.437H688.891c-18.463 0-33.436-14.973-33.436-33.437v-100.29"/><path fill="#ED7161" d="M655.455 488.291h334.346v367.782H655.455z"/><path fill="#ECF0F1" d="M655.455 488.291v-100.31c0-18.463 14.973-33.436 33.436-33.436h267.472c18.465 0 33.438 14.973 33.438 33.437V488.29H655.455z"/><path fill="#656872" d="M956.363 1010H688.891c-29.58 0-53.636-24.066-53.636-53.637V387.982c0-29.57 24.055-53.637 53.636-53.637h267.472c29.58 0 53.637 24.067 53.637 53.637v568.381c0 29.57-24.057 53.637-53.637 53.637zM688.891 374.745c-7.3 0-13.237 5.938-13.237 13.237v568.381c0 7.299 5.938 13.236 13.237 13.236h267.472c7.3 0 13.237-5.937 13.237-13.236V387.982c0-7.299-5.938-13.237-13.237-13.237H688.891z"/><path fill="#656872" d="M989.8 508.491H655.456c-11.156 0-20.2-9.034-20.2-20.2 0-11.165 9.044-20.2 20.2-20.2h334.346c11.154 0 20.199 9.035 20.199 20.2 0 11.166-9.045 20.2-20.2 20.2zm0 367.782H655.456c-11.156 0-20.2-9.035-20.2-20.2s9.044-20.2 20.2-20.2h334.346c11.154 0 20.199 9.035 20.199 20.2s-9.045 20.2-20.2 20.2zM839.346 441.618h-33.437c-11.155 0-20.2-9.034-20.2-20.2 0-11.165 9.045-20.2 20.2-20.2h33.437c11.155 0 20.2 9.035 20.2 20.2 0 11.166-9.045 20.2-20.2 20.2z"/></svg>