<svg id="Layer_1" version="1.1" viewBox="0 0 512 512" xml:space="preserve" xmlns="http://www.w3.org/2000/svg"><style>.st0{fill:#f58c3d}</style><path class="st0" d="M366.5 15.8v88.1h94.3zm-38.1 374.5h-10.5v17.2h10.5c3 0 5.3-.8 6.8-2.4 1.5-1.6 2.3-3.6 2.3-6.1s-.8-4.5-2.3-6.2c-1.5-1.7-3.8-2.5-6.8-2.5zm87.1 0h-7.9v35.6h7.9c3.9 0 7-1.3 9.3-4 2.3-2.6 3.4-6 3.4-10.2v-7.4c0-4.1-1.1-7.5-3.4-10.1-2.3-2.6-5.4-3.9-9.3-3.9z"/><path class="st0" d="M257.3 361.9l28.5 46.2-28.5 46.2h231.5v-92.4H257.3zm83.7 47.9c-3 2.7-7.2 4.1-12.6 4.1h-10.5v18.4h-8.1v-48.6h18.6c5.4 0 9.6 1.4 12.6 4.2 3 2.8 4.6 6.4 4.6 10.9 0 4.6-1.5 8.3-4.6 11zm43.4 19.7c-3.2 2.4-7.3 3.6-12.4 3.6-4.9 0-9.2-1.3-12.9-3.9-3.7-2.6-5.5-6.3-5.3-11.1l.1-.2h7.8c0 2.9 1 5.1 3 6.6s4.5 2.2 7.4 2.2c2.9 0 5.1-.6 6.7-1.8 1.6-1.2 2.4-2.9 2.4-4.9 0-2-.7-3.7-2.2-5-1.4-1.3-4-2.4-7.6-3.5-5.2-1.4-9.3-3.3-12.1-5.7-2.8-2.3-4.3-5.4-4.3-9.2 0-3.9 1.6-7.1 4.7-9.7 3.1-2.5 7.1-3.8 12-3.8 5.3 0 9.5 1.4 12.6 4.2 3.1 2.8 4.7 6.3 4.6 10.4l-.1.2H381c0-2.6-.9-4.6-2.6-6.1-1.7-1.5-4-2.3-6.8-2.3-2.7 0-4.8.6-6.3 1.9-1.5 1.3-2.2 3-2.2 5 0 1.9.8 3.4 2.4 4.6 1.6 1.2 4.3 2.4 8.1 3.5 5.1 1.4 9 3.4 11.6 5.8 2.7 2.5 4 5.6 4 9.4-.1 4.2-1.7 7.4-4.8 9.8zm51.9-17.7c0 6.1-1.9 11-5.8 14.9-3.9 3.8-8.9 5.7-15 5.7h-16.1v-48.6h16.1c6.2 0 11.2 1.9 15 5.8 3.9 3.8 5.8 8.8 5.8 14.9v7.3zM123.4 167.5v-52.9H78v-9.5H23.2V177H78v-9.5zm0 229.9v-52.9H78V335H23.2v71.9H78v-9.5z"/><path class="st0" d="M274.7 408.1l-34.4-55.7h226.3V114.7H355.7V6H78v99.1h54.9V177H78v158h54.9v71.9H78V506h388.6v-42.2H240.3z"/></svg>