<svg viewBox="0 0 64 64" xmlns="http://www.w3.org/2000/svg"><g data-name="Support-Call Center-Information-Help-Customer Service"><path d="M60 20a16.994 16.994 0 01-26.65 13.99L28 36l1.93-5.14A17 17 0 1160 20z" fill="#00ccb3"/><path fill="#e6e7e8" d="M50 18v4h-5v5h-4v-5h-5v-4h5v-5h4v5h5zm-4.1 33.9a2 2 0 01-.1 2.94 25.22 25.22 0 01-3.48 2.48L31 46l3.09-3.09a1.992 1.992 0 012.82 0z"/><path d="M31 46l11.32 11.32A25.987 25.987 0 0118.3 58.7 25.989 25.989 0 013 35a25.76 25.76 0 013.68-13.32L18 33l-2.2 2.2a5.988 5.988 0 00-1.16 6.87 16.082 16.082 0 007.29 7.29 5.988 5.988 0 006.87-1.16z" fill="#3d9ae2"/><path d="M21.09 27.09a1.992 1.992 0 010 2.82L18 33 6.68 21.68a25.22 25.22 0 012.48-3.48 2 2 0 012.94-.1z" fill="#e6e7e8"/><path d="M37.622 42.207a3.073 3.073 0 00-4.243 0L28.1 47.491a4.982 4.982 0 01-5.719.971 15.088 15.088 0 01-6.838-6.838 4.983 4.983 0 01.971-5.719l5.284-5.284a3 3 0 000-4.242l-8.99-8.99a3 3 0 00-4.405.163A27.117 27.117 0 002 35a26.7 26.7 0 002.388 11.111 26.982 26.982 0 0013.5 13.5 27.053 27.053 0 0028.56-4.011 2.977 2.977 0 001.044-2.144 3.025 3.025 0 00-.881-2.26zM9.924 18.845a.966.966 0 01.7-.339h.041a1.02 1.02 0 01.721.3l8.989 8.99a1 1 0 010 1.414L18 31.586 7.96 21.546a24.766 24.766 0 011.964-2.701zm8.787 38.944a24.991 24.991 0 01-12.5-12.5 24.959 24.959 0 01.7-21.964L16.586 33 15.1 34.491a6.98 6.98 0 00-1.351 8.016 17.1 17.1 0 007.749 7.75 6.981 6.981 0 008.016-1.352L31 47.414l9.676 9.677a24.96 24.96 0 01-21.965.7zm26.443-3.714a24.617 24.617 0 01-2.7 1.965L32.414 46l2.379-2.379a1.021 1.021 0 011.414 0l8.99 8.99a1.028 1.028 0 01.3.763.961.961 0 01-.343.701z"/><path d="M43 2a18 18 0 00-14.209 29.045l-1.728 4.6a1 1 0 001.288 1.289l4.875-1.829A18 18 0 1043 2zm0 34a15.906 15.906 0 01-9.077-2.831 1.006 1.006 0 00-.568-.177.994.994 0 00-.351.064l-3.295 1.235 1.154-3.077a1 1 0 00-.168-.991A16 16 0 1143 36z"/><path d="M50 17h-4v-4a1 1 0 00-1-1h-4a1 1 0 00-1 1v4h-4a1 1 0 00-1 1v4a1 1 0 001 1h4v4a1 1 0 001 1h4a1 1 0 001-1v-4h4a1 1 0 001-1v-4a1 1 0 00-1-1zm-1 4h-4a1 1 0 00-1 1v4h-2v-4a1 1 0 00-1-1h-4v-2h4a1 1 0 001-1v-4h2v4a1 1 0 001 1h4z"/></g></svg>