<svg viewBox="0 0 128 128" xmlns="http://www.w3.org/2000/svg"><circle cx="64" cy="64" fill="#4B5F83" r="64"/><path d="M91.7 42l-6.6 6.6c-1.6 1.6-4.1 1.6-5.7 0s-1.6-4.1 0-5.7l6.6-6.6c-4.7-2.3-10.5-1.5-14.4 2.4-3.9 3.9-4.7 9.7-2.4 14.4l-25 25c-2.4-.5-5.1.1-7 2-2.9 2.9-2.9 7.7 0 10.6 2.9 2.9 7.7 2.9 10.6 0 1.9-1.9 2.6-4.5 2-7l25-25c4.7 2.3 10.5 1.5 14.4-2.4S94 46.7 91.7 42zM45.2 87.9c-1.4 1.4-3.6 1.4-4.9 0-1.4-1.4-1.4-3.6 0-4.9s3.6-1.4 4.9 0 1.4 3.5 0 4.9z" fill="#E6E6E6"/><path fill="#B3B3B3" d="M89.2 85.4L54.3 50.6l.8-.8-2.1-6.2-13.3-6.7-4.7 4.7 7.1 13.7 5.8 1.7.8-.8 34.8 34.9z"/><path d="M89 90.9c-2.3 2.3-6.2 2.3-8.5 0L67.8 78.1c-2.3-2.3-2.3-6.2 0-8.5s6.2-2.3 8.5 0L89 82.4c2.3 2.3 2.3 6.1 0 8.5z" fill="#22A7F0"/></svg>